<svg width="15" height="16" viewBox="0 0 15 16" fill="none" xmlns="http://www.w3.org/2000/svg">
<path d="M0.500069 15.25C0.500069 15.6642 0.835855 16 1.25007 16H14.2501C14.6643 16 15.0001 15.6642 15.0001 15.25C15.0001 14.8358 14.6643 14.5 14.2501 14.5H1.25007C1.05034 14.4973 0.857987 14.5754 0.716741 14.7167C0.575495 14.8579 0.497351 15.0503 0.500069 15.25Z" fill="#084A0F"/>
<path d="M0.500069 8.25C0.500069 8.66421 0.835855 9 1.25007 9H14.2501C14.6643 9 15.0001 8.66421 15.0001 8.25C15.0001 7.83579 14.6643 7.5 14.2501 7.5H1.25007C1.05034 7.49728 0.857987 7.57543 0.716741 7.71667C0.575495 7.85792 0.497351 8.05027 0.500069 8.25Z" fill="#084A0F"/>
<path d="M0.500069 1.25C0.500069 1.66421 0.835855 2 1.25007 2H14.2501C14.6643 2 15.0001 1.66421 15.0001 1.25C15.0001 0.835785 14.6643 0.499998 14.2501 0.499998H1.25007C1.05034 0.49728 0.857987 0.575425 0.716741 0.716671C0.575495 0.857917 0.497351 1.05027 0.500069 1.25Z" fill="#084A0F"/>
</svg>
